<svg width="209" height="108" viewBox="0 0 209 108" fill="none" xmlns="http://www.w3.org/2000/svg">
<path d="M4.02 55.24C2.82 55.24 1.8 55.16 0.96 55V49C1.6 49.16 2.32 49.24 3.12 49.24C4.44 49.24 5.42 48.92 6.06 48.28C6.7 47.6 7.02 46.58 7.02 45.22V13H13.62V45.04C13.62 48.48 12.82 51.04 11.22 52.72C9.66 54.4 7.26 55.24 4.02 55.24ZM18.3389 13H28.1189C31.5189 13 33.9989 13.8 35.5589 15.4C37.1189 16.96 37.8989 19.38 37.8989 22.66V25.24C37.8989 29.6 36.4589 32.36 33.5789 33.52V33.64C35.1789 34.12 36.2989 35.1 36.9389 36.58C37.6189 38.06 37.9589 40.04 37.9589 42.52V49.9C37.9589 51.1 37.9989 52.08 38.0789 52.84C38.1589 53.56 38.3589 54.28 38.6789 55H31.9589C31.7189 54.32 31.5589 53.68 31.4789 53.08C31.3989 52.48 31.3589 51.4 31.3589 49.84V42.16C31.3589 40.24 31.0389 38.9 30.3989 38.14C29.7989 37.38 28.7389 37 27.2189 37H24.9389V55H18.3389V13ZM27.3389 31C28.6589 31 29.6389 30.66 30.2789 29.98C30.9589 29.3 31.2989 28.16 31.2989 26.56V23.32C31.2989 21.8 31.0189 20.7 30.4589 20.02C29.9389 19.34 29.0989 19 27.9389 19H24.9389V31H27.3389ZM51.1181 55.6C47.9181 55.6 45.4981 54.7 43.8581 52.9C42.2181 51.06 41.3981 48.44 41.3981 45.04V42.64H47.6381V45.52C47.6381 48.24 48.7781 49.6 51.0581 49.6C52.1781 49.6 53.0181 49.28 53.5781 48.64C54.1781 47.96 54.4781 46.88 54.4781 45.4C54.4781 43.64 54.0781 42.1 53.2781 40.78C52.4781 39.42 50.9981 37.8 48.8381 35.92C46.1181 33.52 44.2181 31.36 43.1381 29.44C42.0581 27.48 41.5181 25.28 41.5181 22.84C41.5181 19.52 42.3581 16.96 44.0381 15.16C45.7181 13.32 48.1581 12.4 51.3581 12.4C54.5181 12.4 56.8981 13.32 58.4981 15.16C60.1381 16.96 60.9581 19.56 60.9581 22.96V24.7H54.7181V22.54C54.7181 21.1 54.4381 20.06 53.8781 19.42C53.3181 18.74 52.4981 18.4 51.4181 18.4C49.2181 18.4 48.1181 19.74 48.1181 22.42C48.1181 23.94 48.5181 25.36 49.3181 26.68C50.1581 28 51.6581 29.6 53.8181 31.48C56.5781 33.88 58.4781 36.06 59.5181 38.02C60.5581 39.98 61.0781 42.28 61.0781 44.92C61.0781 48.36 60.2181 51 58.4981 52.84C56.8181 54.68 54.3581 55.6 51.1181 55.6ZM64.8623 13H82.8623V19H71.4623V30.1H80.5223V36.1H71.4623V49H82.8623V55H64.8623V13ZM86.6592 13H93.2592V55H86.6592V13ZM98.2022 13H106.482L112.902 38.14H113.022V13H118.902V55H112.122L104.202 24.34H104.082V55H98.2022V13ZM133.108 55.6C129.948 55.6 127.528 54.7 125.848 52.9C124.208 51.1 123.388 48.56 123.388 45.28V22.72C123.388 19.44 124.208 16.9 125.848 15.1C127.528 13.3 129.948 12.4 133.108 12.4C136.268 12.4 138.668 13.3 140.308 15.1C141.988 16.9 142.828 19.44 142.828 22.72V27.16H136.588V22.3C136.588 19.7 135.488 18.4 133.288 18.4C131.088 18.4 129.988 19.7 129.988 22.3V45.76C129.988 48.32 131.088 49.6 133.288 49.6C135.488 49.6 136.588 48.32 136.588 45.76V39.34H142.828V45.28C142.828 48.56 141.988 51.1 140.308 52.9C138.668 54.7 136.268 55.6 133.108 55.6Z" fill="white"/>
<path d="M148.535 52.1582C148.535 51.2207 148.809 50.4395 149.355 49.8145C149.922 49.1895 150.762 48.877 151.875 48.877C152.988 48.877 153.828 49.1895 154.395 49.8145C154.98 50.4395 155.273 51.2207 155.273 52.1582C155.273 53.0566 154.98 53.8086 154.395 54.4141C153.828 55.0195 152.988 55.3223 151.875 55.3223C150.762 55.3223 149.922 55.0195 149.355 54.4141C148.809 53.8086 148.535 53.0566 148.535 52.1582Z" fill="#FF6109"/>
</svg>
