<svg width="208" height="84" viewBox="0 0 208 84" fill="none" xmlns="http://www.w3.org/2000/svg">
<path d="M27.02 62.24C25.82 62.24 24.8 62.16 23.96 62V56C24.6 56.16 25.32 56.24 26.12 56.24C27.44 56.24 28.42 55.92 29.06 55.28C29.7 54.6 30.02 53.58 30.02 52.22V20H36.62V52.04C36.62 55.48 35.82 58.04 34.22 59.72C32.66 61.4 30.26 62.24 27.02 62.24ZM41.3389 20H51.1189C54.5189 20 56.9989 20.8 58.5589 22.4C60.1189 23.96 60.8989 26.38 60.8989 29.66V32.24C60.8989 36.6 59.4589 39.36 56.5789 40.52V40.64C58.1789 41.12 59.2989 42.1 59.9389 43.58C60.6189 45.06 60.9589 47.04 60.9589 49.52V56.9C60.9589 58.1 60.9989 59.08 61.0789 59.84C61.1589 60.56 61.3589 61.28 61.6789 62H54.9589C54.7189 61.32 54.5589 60.68 54.4789 60.08C54.3989 59.48 54.3589 58.4 54.3589 56.84V49.16C54.3589 47.24 54.0389 45.9 53.3989 45.14C52.7989 44.38 51.7389 44 50.2189 44H47.9389V62H41.3389V20ZM50.3389 38C51.6589 38 52.6389 37.66 53.2789 36.98C53.9589 36.3 54.2989 35.16 54.2989 33.56V30.32C54.2989 28.8 54.0189 27.7 53.4589 27.02C52.9389 26.34 52.0989 26 50.9389 26H47.9389V38H50.3389ZM74.1181 62.6C70.9181 62.6 68.4981 61.7 66.8581 59.9C65.2181 58.06 64.3981 55.44 64.3981 52.04V49.64H70.6381V52.52C70.6381 55.24 71.7781 56.6 74.0581 56.6C75.1781 56.6 76.0181 56.28 76.5781 55.64C77.1781 54.96 77.4781 53.88 77.4781 52.4C77.4781 50.64 77.0781 49.1 76.2781 47.78C75.4781 46.42 73.9981 44.8 71.8381 42.92C69.1181 40.52 67.2181 38.36 66.1381 36.44C65.0581 34.48 64.5181 32.28 64.5181 29.84C64.5181 26.52 65.3581 23.96 67.0381 22.16C68.7181 20.32 71.1581 19.4 74.3581 19.4C77.5181 19.4 79.8981 20.32 81.4981 22.16C83.1381 23.96 83.9581 26.56 83.9581 29.96V31.7H77.7181V29.54C77.7181 28.1 77.4381 27.06 76.8781 26.42C76.3181 25.74 75.4981 25.4 74.4181 25.4C72.2181 25.4 71.1181 26.74 71.1181 29.42C71.1181 30.94 71.5181 32.36 72.3181 33.68C73.1581 35 74.6581 36.6 76.8181 38.48C79.5781 40.88 81.4781 43.06 82.5181 45.02C83.5581 46.98 84.0781 49.28 84.0781 51.92C84.0781 55.36 83.2181 58 81.4981 59.84C79.8181 61.68 77.3581 62.6 74.1181 62.6ZM87.8623 20H105.862V26H94.4623V37.1H103.522V43.1H94.4623V56H105.862V62H87.8623V20ZM109.659 20H116.259V62H109.659V20ZM121.202 20H129.482L135.902 45.14H136.022V20H141.902V62H135.122L127.202 31.34H127.082V62H121.202V20ZM156.108 62.6C152.948 62.6 150.528 61.7 148.848 59.9C147.208 58.1 146.388 55.56 146.388 52.28V29.72C146.388 26.44 147.208 23.9 148.848 22.1C150.528 20.3 152.948 19.4 156.108 19.4C159.268 19.4 161.668 20.3 163.308 22.1C164.988 23.9 165.828 26.44 165.828 29.72V34.16H159.588V29.3C159.588 26.7 158.488 25.4 156.288 25.4C154.088 25.4 152.988 26.7 152.988 29.3V52.76C152.988 55.32 154.088 56.6 156.288 56.6C158.488 56.6 159.588 55.32 159.588 52.76V46.34H165.828V52.28C165.828 55.56 164.988 58.1 163.308 59.9C161.668 61.7 159.268 62.6 156.108 62.6Z" fill="black"/>
<path d="M171.535 59.1582C171.535 58.2207 171.809 57.4395 172.355 56.8145C172.922 56.1895 173.762 55.877 174.875 55.877C175.988 55.877 176.828 56.1895 177.395 56.8145C177.98 57.4395 178.273 58.2207 178.273 59.1582C178.273 60.0566 177.98 60.8086 177.395 61.4141C176.828 62.0195 175.988 62.3223 174.875 62.3223C173.762 62.3223 172.922 62.0195 172.355 61.4141C171.809 60.8086 171.535 60.0566 171.535 59.1582Z" fill="#FF6109"/>
</svg>
